<svg enable-background="new 0 0 32 32" viewBox="0 0 32 32" xmlns="http://www.w3.org/2000/svg"><path d="m16 31.36c-.155 0-.292-.1-.341-.246l-4.949-14.846c-1.672-.322-2.672-1.473-2.672-3.161 0-1.142.55-2.293 1.616-2.871-.364-.853-.549-1.76-.549-2.701 0-3.802 3.093-6.895 6.895-6.895s6.896 3.093 6.896 6.895c0 .94-.185 1.848-.55 2.701 1.065.578 1.616 1.729 1.616 2.871 0 1.783-1.312 2.962-2.687 3.206l-4.934 14.801c-.049.147-.186.246-.341.246zm-4.502-15.004 4.502 13.505 4.501-13.501h-8.777c-.076 0-.152-.002-.226-.004zm-.249-6.501c.199 0 .36.161.36.36s-.161.36-.36.36c-1.711 0-2.491 1.313-2.491 2.533 0 1.586 1.109 2.533 2.966 2.533h9.027c1.198 0 2.49-.968 2.49-2.533 0-1.22-.779-2.533-2.49-2.533h-3.801c-.199 0-.36-.161-.36-.36s.161-.36.36-.36h3.801c.334 0 .643.041.925.116.332-.769.499-1.587.499-2.436 0-3.405-2.77-6.175-6.175-6.175s-6.175 2.771-6.175 6.175c0 .849.168 1.667.5 2.436.282-.075.591-.116.924-.116z"/><path d="m0 0h32v32h-32z" fill="none"/></svg>