<svg viewBox="0 0 72 72" xmlns="http://www.w3.org/2000/svg"><g fill="none" stroke="#000" stroke-linecap="round" stroke-linejoin="round" stroke-miterlimit="10"><g stroke-width="2"><path d="m26 21c0-5.5228 4.4772-10 10-10s10 4.4772 10 10"/><path d="m36.0657 26.5031c1.6462-3.2644 5.029-5.5031 8.9343-5.5031 5.5225 0 10 4.4766 10 10 0 3.1787-1.4829 6.0107-3.7946 7.8423"/><path d="m20.6391 38.7165c-2.2225-1.8342-3.6391-4.6099-3.6391-7.7165 0-5.5228 4.4772-10 10-10s10 4.4772 10 10c0 3.1784-1.4828 6.0105-3.7945 7.8421"/></g><path d="m33 60v-6c0-2.7617-2.2393-5-5-5h-4-3c-2.7607 0-5-2.2383-5-5v-3c0-1.1045.8955-2 2-2h36c1.1045 0 2 .8955 2 2v3c0 2.7617-2.2393 5-5 5h-3-4c-2.7607 0-5 2.2383-5 5v6" stroke-width="1.9467"/><path d="m29 60h14" stroke-width="1.9467"/></g></svg>