<svg viewBox="0 0 1024 1068.466" xmlns="http://www.w3.org/2000/svg"><path d="M524.66 21.333h.167c35.555 0 69.592 6.503 100.984 18.386l-1.962-.653 19.456 7.168-4.934 20.154c-1.657 6.505-2.608 13.973-2.608 21.664 0 .205 0 .41.002.615v-.032.653c0 60.667 49.18 109.847 109.846 109.847H746.45c7.668-.006 15.113-.956 22.226-2.74l-.63.134 20.247-4.933 7.12 19.55c10.92 28.942 17.24 62.4 17.24 97.333 0 1.06-.007 2.12-.018 3.18v-.162 354.956c-.494 61.703-50.342 111.6-111.98 112.174H344.902c-61.702-.495-111.6-50.343-112.173-111.98V311.312c.58-159.917 130.062-289.4 289.923-289.978h.055zm65.164 55.53c-19.446-5.704-41.786-8.984-64.893-8.984h-2.225c-134.248.526-242.932 109.227-243.433 243.43v355.144c.366 36.147 29.61 65.343 65.74 65.63H700.51c36.147-.367 65.343-29.61 65.63-65.742v-355.03c.008-.784.014-1.712.014-2.64 0-22.584-3.15-44.432-9.033-65.13l.406 1.677q-5.54.464-11.078.464h-.93c-86.315-.08-156.255-70.068-156.255-156.393v-.44.022q-.046-6.004.466-12.01zM410.53 732.082h224.35v201.075c0 61.952-50.222 112.175-112.175 112.175S410.53 995.11 410.53 933.158zm177.805 46.545H457.077v154.53c0 36.247 29.383 65.63 65.63 65.63s65.628-29.383 65.628-65.63z"/></svg>